<svg xmlns="http://www.w3.org/2000/svg" width="218.204" height="387.593" viewBox="0 0 218.204 387.593">
  <g id="그룹_6" data-name="그룹 6" transform="translate(-858 -128.5)">
    <path id="사각형_1" data-name="사각형 1" d="M10,10V310l160-30.745L10,175.195,170,10,10,45.712M0,37.785,180-3.07V287.182L0,323.159Z" transform="translate(858 131.57)" fill="#fff"/>
    <g id="패스_5" data-name="패스 5" transform="matrix(0.978, -0.208, 0.208, 0.978, 858, 468.602)" fill="#fff">
      <path d="M 211.9329833984375 48.05248260498047 L 25.72384834289551 48.05248260498047 L 0.8261677026748657 0.5000082850456238 L 187.0352783203125 0.5000082850456238 L 211.9329833984375 48.05248260498047 Z" stroke="none"/>
      <path d="M 1.652359008789062 0.9999961853027344 L 26.02647399902344 47.55249404907227 L 211.1067962646484 47.55249404907227 L 186.7326812744141 0.9999961853027344 L 1.652359008789062 0.9999961853027344 M 0 -3.814697265625e-06 L 187.337890625 -3.814697265625e-06 L 212.7591552734375 48.55249404907227 L 25.4212646484375 48.55249404907227 L 0 -3.814697265625e-06 Z" stroke="none" fill="#707070"/>
    </g>
  </g>
</svg>
